<svg xmlns="http://www.w3.org/2000/svg" width="560" height="350" viewBox="0 0 560 350" role="img" aria-label="Temporary image slot for csprinkels.com">
  <defs>
    <linearGradient id="bg" x1="0" y1="0" x2="1" y2="1">
      <stop stop-color="#0A3947"/><stop offset="1" stop-color="#176D78"/>
    </linearGradient>
    <pattern id="grid" width="32" height="32" patternUnits="userSpaceOnUse">
      <path d="M32 0H0V32" fill="none" stroke="#FFFFFF" stroke-opacity=".08"/>
    </pattern>
  </defs>
  <rect width="560" height="350" rx="22" fill="url(#bg)"/>
  <rect width="560" height="350" rx="22" fill="url(#grid)"/>
<g transform="translate(280 150)" fill="none" stroke-linejoin="round">
    <path d="M-154 55L-62-45 2 18 66-73 157 55z" fill="#0D515D" stroke="#7CDCE2" stroke-width="3"/>
    <path d="M-154 55L-35 75 2 18 74 79 157 55M-62-45L-35 75M66-73L74 79M-62-45L2 18M66-73L2 18" stroke="#7CDCE2" stroke-opacity=".65" stroke-width="2"/>
    <circle cx="66" cy="-73" r="24" fill="#F5B54C" fill-opacity=".18" stroke="#F5B54C" stroke-width="3"/>
    <path d="M-185 91q80-34 160 0t160 0 95 0" stroke="#F5B54C" stroke-width="4"/>
  </g>
  <rect x="28" y="28" width="154" height="34" rx="17" fill="#082F3C" fill-opacity=".78" stroke="#F5B54C"/>
  <text x="105" y="50" fill="#FFFFFF" font-family="Inter, Segoe UI, Arial, sans-serif" font-size="13" font-weight="700" text-anchor="middle" letter-spacing="1.5">IMAGE SLOT</text>
  <text x="30" y="284" fill="#FFFFFF" font-family="Inter, Segoe UI, Arial, sans-serif" font-size="32" font-weight="800">csprinkels.com</text>
  <text x="30" y="317" fill="#FFFFFF" fill-opacity=".8" font-family="Inter, Segoe UI, Arial, sans-serif" font-size="16">Replace with 3D portfolio screenshot</text>
  <rect x="1.5" y="1.5" width="557" height="347" rx="21" fill="none" stroke="#F5B54C" stroke-width="3" stroke-opacity=".8"/>
</svg>
